<svg xmlns="http://www.w3.org/2000/svg" width="30.895" height="28.528" viewBox="0 0 30.895 28.528">
  <g id="그룹_33" data-name="그룹 33" transform="translate(-1370.763)">
    <g id="그룹_29" data-name="그룹 29" transform="translate(1370.763)">
      <g id="그룹_28" data-name="그룹 28">
        <path id="패스_5" data-name="패스 5" d="M1386.208,251.758c-8.533,0-15.445,5.46-15.445,12.2,0,4.334,2.865,8.133,7.167,10.3l-1.456,5.435a.439.439,0,0,0,.7.488l6.259-4.225a19.625,19.625,0,0,0,2.78.2c8.529,0,15.449-5.456,15.449-12.2S1394.737,251.758,1386.208,251.758Z" transform="translate(-1370.763 -251.758)" fill="#2b1718"/>
      </g>
    </g>
    <g id="그룹_30" data-name="그룹 30" transform="translate(1373.571 8.559)">
      <path id="패스_6" data-name="패스 6" d="M1382.989,283.118h-1.682a1.134,1.134,0,0,1-.6-.158.664.664,0,0,1-.306-.454c-.01-.051-.019-.111-.025-.171a.68.68,0,0,1,.264-.572,1.048,1.048,0,0,1,.66-.209h5.143a1.1,1.1,0,0,1,.593.158.681.681,0,0,1,.311.454.751.751,0,0,1,.014.168.7.7,0,0,1-.258.578,1.04,1.04,0,0,1-.658.2h-1.679l-.006,5.792a.909.909,0,0,1-.244.669.849.849,0,0,1-.649.254.891.891,0,0,1-.569-.185.807.807,0,0,1-.3-.5,1.051,1.051,0,0,1-.016-.238Z" transform="translate(-1380.378 -281.41)" fill="#fe0"/>
      <path id="패스_7" data-name="패스 7" d="M1399.775,281.627a.807.807,0,0,1,.325-.436,1.05,1.05,0,0,1,.547-.131h.426a1.117,1.117,0,0,1,.583.142.931.931,0,0,1,.367.54l2.147,6.221a3.716,3.716,0,0,1,.143.5,1.8,1.8,0,0,1,.032.214.781.781,0,0,1-.25.575.8.8,0,0,1-.593.236.759.759,0,0,1-.8-.506l-.46-1.354h-2.863l-.46,1.354a.751.751,0,0,1-.8.506.826.826,0,0,1-.525-.164.751.751,0,0,1-.272-.458,1.1,1.1,0,0,1-.016-.19,1.151,1.151,0,0,1,.049-.329c.036-.127.077-.256.123-.381Zm1.075,1.445h-.02l-1.047,3.265h2.082Z" transform="translate(-1392.362 -281.06)" fill="#fe0"/>
      <path id="패스_8" data-name="패스 8" d="M1422.343,281.985a.91.91,0,0,1,.244-.668.838.838,0,0,1,.65-.256.886.886,0,0,1,.569.186.839.839,0,0,1,.294.506.805.805,0,0,1,.018.233l0,5.794h2.972a1.025,1.025,0,0,1,.6.162.675.675,0,0,1,.3.45,1.026,1.026,0,0,1,.024.169.674.674,0,0,1-.264.575,1.038,1.038,0,0,1-.66.2h-3.709a1.177,1.177,0,0,1-.67-.17.815.815,0,0,1-.335-.553,2.237,2.237,0,0,1-.042-.362Z" transform="translate(-1410.082 -281.06)" fill="#fe0"/>
      <path id="패스_9" data-name="패스 9" d="M1442.4,281.985a.935.935,0,0,1,.242-.668.852.852,0,0,1,.652-.256.88.88,0,0,1,.567.186.841.841,0,0,1,.3.506,1.009,1.009,0,0,1,.018.233l0,2.693,2.792-3.212a2.252,2.252,0,0,1,.339-.307.689.689,0,0,1,.374-.1.914.914,0,0,1,.533.168.659.659,0,0,1,.292.432c0,.008.006.032.014.07a.283.283,0,0,0,.006.076.72.72,0,0,1-.085.335,1.5,1.5,0,0,1-.212.3l-1.826,2,2.163,3.422.064.105a1.954,1.954,0,0,1,.256.518.265.265,0,0,0,.012.053v.061a.809.809,0,0,1-.268.681,1.034,1.034,0,0,1-.643.208.9.9,0,0,1-.446-.1,1.118,1.118,0,0,1-.347-.388l-2.052-3.3-.974,1.019.008,1.84a.944.944,0,0,1-.244.669.86.86,0,0,1-.654.254.908.908,0,0,1-.569-.185.816.816,0,0,1-.3-.5,1.038,1.038,0,0,1-.014-.238Z" transform="translate(-1424.283 -281.06)" fill="#fe0"/>
    </g>
  </g>
</svg>
