<svg xmlns="http://www.w3.org/2000/svg" width="200.553" height="63.076" viewBox="0 0 200.553 63.076">
  <g id="그룹_1406" data-name="그룹 1406" transform="translate(-215.149 -272.126)">
    <path id="패스_123" data-name="패스 123" d="M408.258,283.761a8.758,8.758,0,1,0-12.115,8.087l-2.659,22.082h12.029l-2.656-22.082a8.757,8.757,0,0,0,5.4-8.087" transform="translate(7.443 0.122)" fill="#d9000d"/>
    <path id="패스_124" data-name="패스 124" d="M250.8,308.735a3.672,3.672,0,1,0,3.672-3.673,3.673,3.673,0,0,0-3.672,3.673" transform="translate(1.511 1.396)" fill="#d9000d"/>
    <path id="패스_125" data-name="패스 125" d="M301.123,292.186c2.055,0,4.493,1.986,4.493,5.543h-8.987c0-3.771,2.441-5.543,4.495-5.543m.088,14.754a5.775,5.775,0,0,1-4.25-4.087h15.753V299.33c0-8.047-5.329-13.556-12.13-13.556s-12.129,5.509-12.129,13.556c0,7.916,5.151,13.533,11.794,13.737a17.014,17.014,0,0,0,2.809.212c2.665,0,5.975-.714,7.718-3.023l-3.535-4.132c-1.747,1.284-3.367,1.506-6.029.816" transform="translate(3.107 0.579)" fill="#2e2e2d"/>
    <path id="패스_126" data-name="패스 126" d="M325.533,300.433l-5.211-14.455h-8.434s8.65,24.034,9.13,25.393a5.373,5.373,0,0,1,.292,3.32c-1.164,2.1-2.846,2.219-4.64,2.439l-2.128.087s-3.828.175-3.615,4.644c.058,1.19.13,2.683.13,2.683l5.949-.285v.007c5.644-.6,11.106-2.631,13.01-10.277.981-3.932,7.892-27.778,7.962-28.012h-8.232c-.157.543-2.247,7.651-4.214,14.455" transform="translate(4.06 0.587)" fill="#2e2e2d"/>
    <path id="패스_127" data-name="패스 127" d="M386.467,288.68a11.034,11.034,0,0,0-7.844-2.907l-.23.005H366.638v11.05c-.009.3-.005.52,0,.659v15.738H374.7V296.966a4.855,4.855,0,0,1,1.189-3.128,3.61,3.61,0,0,1,2.737-.8,2.564,2.564,0,0,1,1.951.6c1.074,1.021,1.3,3.312,1.251,4.238l-.011,15.351h8.059V298.213c.056-1.061.118-6.138-3.407-9.533" transform="translate(6.421 0.579)" fill="#2e2e2d"/>
    <path id="패스_128" data-name="패스 128" d="M280.214,291.753c5.6-2.259,10.009-3,12.316-9.434,2.132-5.925.631-10.194.631-10.194s-.106,4.491-7.966,6.355c-5.185,1.226-9.571,3.276-12.342,7.215a15.433,15.433,0,0,0-2.059,4.123v-9.193s.014-5.183-6.037-5.183h-3.634V313.8h9.671V299.932a6.043,6.043,0,0,1,1.256-3.105l9.756,16.978H290.5l-11.948-21.342c.529-.236,1.078-.471,1.667-.71" transform="translate(1.949)" fill="#2e2e2d"/>
    <path id="패스_129" data-name="패스 129" d="M348.213,305.21V283.572c6.106,0,7.872,3.489,7.872,10.82s-1.766,10.819-7.872,10.819M343.2,275.223l-4.1,0V313.56s2.159-.005,4.823,0h.018c9.2-.026,20.533-.752,20.533-19.413,0-19.168-11.954-18.924-21.271-18.924" transform="translate(5.254 0.131)" fill="#2e2e2d"/>
    <path id="패스_130" data-name="패스 130" d="M254.392,288.352a20.016,20.016,0,0,0-7.241,4.167v-3.8s.006-2.948-3.435-2.948h-2.067v27.451h5.5V302.994c0-8.117,7.943-9.779,8.263-9.879l.419-.153Z" transform="translate(1.123 0.579)" fill="#8c8b8b"/>
    <path id="패스_131" data-name="패스 131" d="M220.429,308.728V280.054c10.207,0,13.35,4.219,13.35,14.337s-3.143,14.336-13.35,14.336m-1.176-33.5-4.1,0V313.56h4.1c9.318,0,19.877,0,19.877-19.169s-10.557-19.169-19.873-19.169" transform="translate(0 0.131)" fill="#8c8b8b"/>
    <rect id="사각형_380" data-name="사각형 380" width="14.622" height="1.828" transform="translate(263.098 333.373)" fill="#8c8b8b"/>
    <path id="패스_132" data-name="패스 132" d="M223.172,323.6h-6.195v-3.124h6.195v-1.829h-8.023v6.779h8.023Z" transform="translate(0 1.972)" fill="#8c8b8b"/>
    <path id="패스_133" data-name="패스 133" d="M273.865,327.254v-1.828h-9.137v-4.95h9.137v-1.828H262.9v8.607h10.962Z" transform="translate(2.024 1.972)" fill="#8c8b8b"/>
    <path id="패스_134" data-name="패스 134" d="M279.017,318.647h-1.829v11.939h8.406v-1.827h-6.578Z" transform="translate(2.63 1.972)" fill="#8c8b8b"/>
    <path id="패스_135" data-name="패스 135" d="M233.989,325.427h4.9V323.6h-4.9v-3.125h5.469v-1.827h-7.3v11.937h8.4v-1.826h-6.575Z" transform="translate(0.721 1.972)" fill="#8c8b8b"/>
    <path id="패스_136" data-name="패스 136" d="M247.111,318.647v1.828H252.4V323.6h-5.289v1.826H252.4v.707c0,1.7-5.289,3.8-5.289,3.8l1.641,1.085s5.475-2.23,5.475-4.648v-7.721h-7.115Z" transform="translate(1.355 1.972)" fill="#8c8b8b"/>
    <path id="패스_137" data-name="패스 137" d="M226.176,327.307h-9.188v1.827h9.188v3.728h1.829v-5.555h-1.829Z" transform="translate(0.078 2.339)" fill="#8c8b8b"/>
    <path id="패스_138" data-name="패스 138" d="M227.631,318.647H225.8v6.779h4.225V323.6h-2.4Z" transform="translate(0.452 1.972)" fill="#8c8b8b"/>
    <path id="패스_139" data-name="패스 139" d="M242.62,323.6h-2.4v1.827h2.4v7.8h1.827V318.647H242.62Z" transform="translate(1.063 1.972)" fill="#8c8b8b"/>
    <rect id="사각형_381" data-name="사각형 381" width="1.828" height="14.582" transform="translate(259.042 320.619)" fill="#8c8b8b"/>
    <rect id="사각형_382" data-name="사각형 382" width="1.826" height="14.582" transform="translate(290.619 320.619)" fill="#8c8b8b"/>
  </g>
</svg>
