<svg xmlns="http://www.w3.org/2000/svg" width="314.218" height="98.825" viewBox="0 0 314.218 98.825">
  <g id="그룹_79" data-name="그룹 79" transform="translate(-215.149 -272.126)">
    <path id="패스_123" data-name="패스 123" d="M418.186,288.724a13.722,13.722,0,1,0-18.981,12.67l-4.166,34.6h18.847l-4.161-34.6a13.721,13.721,0,0,0,8.461-12.67" transform="translate(111.181 1.823)" fill="#d9000d"/>
    <path id="패스_124" data-name="패스 124" d="M250.8,310.817a5.754,5.754,0,1,0,5.754-5.755,5.755,5.755,0,0,0-5.754,5.755" transform="translate(22.571 20.854)" fill="#d9000d"/>
    <path id="패스_125" data-name="패스 125" d="M308.3,295.82c3.219,0,7.039,3.111,7.039,8.685H301.261c0-5.909,3.825-8.685,7.042-8.685m.137,23.116a9.048,9.048,0,0,1-6.658-6.4h24.68v-5.518c0-12.608-8.349-21.24-19.005-21.24s-19,8.631-19,21.24c0,12.4,8.071,21.2,18.478,21.522a26.654,26.654,0,0,0,4.4.332c4.176,0,9.361-1.119,12.092-4.736l-5.538-6.474c-2.737,2.012-5.275,2.36-9.446,1.279" transform="translate(46.415 8.642)" fill="#2e2e2d"/>
    <path id="패스_126" data-name="패스 126" d="M333.816,308.625l-8.164-22.647H312.437s13.552,37.656,14.305,39.784.882,4.225.457,5.2c-1.824,3.288-4.459,3.477-7.269,3.822l-3.333.137s-6,.274-5.664,7.276c.091,1.865.2,4.2.2,4.2l9.321-.446v.011c8.844-.942,17.4-4.122,20.384-16.1,1.537-6.16,12.365-43.521,12.474-43.888h-12.9c-.247.851-3.521,11.988-6.6,22.647" transform="translate(60.64 8.771)" fill="#2e2e2d"/>
    <path id="패스_127" data-name="패스 127" d="M397.708,290.328a17.288,17.288,0,0,0-12.29-4.555l-.361.008H366.641v17.313c-.015.465-.008.815,0,1.032v24.658h12.624V303.31c.052-1.194.443-3.58,1.864-4.9.333-.31,1.344-1.256,4.289-1.256a4.018,4.018,0,0,1,3.057.939c1.682,1.6,2.04,5.189,1.96,6.641l-.016,24.052h12.626V305.263c.088-1.663.184-9.616-5.337-14.935" transform="translate(95.916 8.641)" fill="#2e2e2d"/>
    <path id="패스_128" data-name="패스 128" d="M291.035,302.877c8.778-3.539,15.682-4.707,19.3-14.78,3.34-9.283.988-15.971.988-15.971s-.167,7.036-12.481,9.957c-8.123,1.921-15,5.133-19.337,11.3a24.176,24.176,0,0,0-3.226,6.459v-14.4s.021-8.12-9.459-8.12h-5.693v60.1h15.153V315.691a9.467,9.467,0,0,1,1.968-4.865l15.285,26.6h13.614l-18.719-33.438c.83-.369,1.689-.738,2.611-1.112" transform="translate(29.11 0)" fill="#2e2e2d"/>
    <path id="패스_129" data-name="패스 129" d="M353.38,322.206V288.3c9.567,0,12.334,5.466,12.334,16.952s-2.767,16.951-12.334,16.951m-7.857-46.983-6.428,0v60.062s3.382-.008,7.557,0h.028c14.416-.041,32.17-1.178,32.17-30.416,0-30.033-18.729-29.649-33.327-29.649" transform="translate(78.48 1.961)" fill="#2e2e2d"/>
    <path id="패스_130" data-name="패스 130" d="M261.615,289.812a31.36,31.36,0,0,0-11.346,6.529v-5.948s.01-4.619-5.381-4.619h-3.239v43.01h8.62V312.754c0-12.718,12.445-15.321,12.946-15.478l.657-.24Z" transform="translate(16.779 8.642)" fill="#8c8b8b"/>
    <path id="패스_131" data-name="패스 131" d="M223.421,327.717V282.793c15.992,0,20.916,6.61,20.916,22.463s-4.924,22.461-20.916,22.461m-1.842-52.493-6.43,0v60.062h6.423c14.6,0,31.143,0,31.143-30.033s-16.541-30.032-31.137-30.032" transform="translate(0 1.961)" fill="#8c8b8b"/>
    <rect id="사각형_380" data-name="사각형 380" width="22.908" height="2.864" transform="translate(290.273 368.085)" fill="#8c8b8b"/>
    <path id="패스_132" data-name="패스 132" d="M227.72,326.407h-9.706v-4.894h9.706v-2.865h-12.57v10.621h12.57Z" transform="translate(0 29.456)" fill="#8c8b8b"/>
    <path id="패스_133" data-name="패스 133" d="M280.078,332.132v-2.864H265.763v-7.756h14.315v-2.864H262.9v13.485h17.175Z" transform="translate(30.237 29.456)" fill="#8c8b8b"/>
    <path id="패스_134" data-name="패스 134" d="M280.054,318.647h-2.865v18.7h13.171V334.49H280.054Z" transform="translate(39.282 29.456)" fill="#8c8b8b"/>
    <path id="패스_135" data-name="패스 135" d="M235.025,329.268H242.7v-2.861h-7.671v-4.9h8.569v-2.863H232.161v18.7h13.167v-2.861h-10.3Z" transform="translate(10.771 29.457)" fill="#8c8b8b"/>
    <path id="패스_136" data-name="패스 136" d="M247.111,318.647v2.865H255.4v4.895h-8.287v2.861H255.4v1.107c0,2.664-8.287,5.951-8.287,5.951l2.571,1.7s8.577-3.493,8.577-7.282v-12.1H247.111Z" transform="translate(20.238 29.456)" fill="#8c8b8b"/>
    <path id="패스_137" data-name="패스 137" d="M231.383,327.307H216.989v2.863h14.395v5.841h2.865v-8.7h-2.865Z" transform="translate(1.165 34.939)" fill="#8c8b8b"/>
    <path id="패스_138" data-name="패스 138" d="M228.668,318.647H225.8v10.621h6.619v-2.861h-3.755Z" transform="translate(6.746 29.456)" fill="#8c8b8b"/>
    <path id="패스_139" data-name="패스 139" d="M243.979,326.407h-3.757v2.862h3.757v12.226h2.863V318.647h-2.863Z" transform="translate(15.876 29.456)" fill="#8c8b8b"/>
    <rect id="사각형_381" data-name="사각형 381" width="2.864" height="22.847" transform="translate(283.919 348.103)" fill="#8c8b8b"/>
    <rect id="사각형_382" data-name="사각형 382" width="2.861" height="22.847" transform="translate(333.392 348.103)" fill="#8c8b8b"/>
  </g>
</svg>
